<svg xmlns="http://www.w3.org/2000/svg" viewBox="0 0 100 100">
  <defs>
    <linearGradient id="skyGradient" x1="0%" y1="0%" x2="0%" y2="100%">
      <stop offset="0%" style="stop-color:#87CEEB;stop-opacity:1" />
      <stop offset="100%" style="stop-color:#4682B4;stop-opacity:1" />
    </linearGradient>
    <radialGradient id="sunGradient" cx="50%" cy="50%" r="50%">
      <stop offset="0%" style="stop-color:#FFD700;stop-opacity:1" />
      <stop offset="100%" style="stop-color:#FFA500;stop-opacity:1" />
    </radialGradient>
  </defs>
  
  <!-- Sky background -->
  <rect width="100" height="100" fill="url(#skyGradient)" rx="20"/>
  
  <!-- Sun -->
  <circle cx="75" cy="25" r="12" fill="url(#sunGradient)"/>
  <g stroke="#FFD700" stroke-width="2" stroke-linecap="round">
    <line x1="75" y1="8" x2="75" y2="12"/>
    <line x1="87" y1="13" x2="84" y2="16"/>
    <line x1="92" y1="25" x2="88" y2="25"/>
    <line x1="87" y1="37" x2="84" y2="34"/>
    <line x1="75" y1="42" x2="75" y2="38"/>
    <line x1="63" y1="37" x2="66" y2="34"/>
    <line x1="58" y1="25" x2="62" y2="25"/>
    <line x1="63" y1="13" x2="66" y2="16"/>
  </g>
  
  <!-- Clouds -->
  <g fill="white" opacity="0.9">
    <!-- Big cloud -->
    <ellipse cx="30" cy="45" rx="20" ry="8"/>
    <ellipse cx="20" cy="40" rx="12" ry="10"/>
    <ellipse cx="35" cy="40" rx="15" ry="12"/>
    <ellipse cx="45" cy="42" rx="10" ry="8"/>
    
    <!-- Small cloud -->
    <ellipse cx="65" cy="65" rx="12" ry="6"/>
    <ellipse cx="60" cy="62" rx="8" ry="7"/>
    <ellipse cx="70" cy="62" rx="10" ry="8"/>
  </g>
  
  <!-- Rain drops -->
  <g fill="#4682B4" opacity="0.7">
    <ellipse cx="25" cy="55" rx="1.5" ry="4"/>
    <ellipse cx="35" cy="58" rx="1.5" ry="4"/>
    <ellipse cx="40" cy="55" rx="1.5" ry="4"/>
  </g>
</svg>
